<svg id="Layer_1" data-name="Layer 1" xmlns="http://www.w3.org/2000/svg" viewBox="0 0 688 400"><defs><style>.cls-1{fill:#efc329;}.cls-2{fill:#de6e26;}.cls-3{fill:#4dacb6;}.cls-4{fill:#bc2c26;}.cls-5{fill:#153634;}</style></defs><circle class="cls-1" cx="107.29" cy="310.99" r="37.4"/><circle class="cls-2" cx="108.81" cy="86.86" r="37.4"/><circle class="cls-1" cx="219.54" cy="59.66" r="26.95"/><circle class="cls-2" cx="219.54" cy="338.55" r="26.95"/><circle class="cls-3" cx="72.51" cy="199.11" r="26.95"/><circle class="cls-4" cx="314.36" cy="294.18" r="16.67"/><path class="cls-5" d="M221.42,198.93a10.92,10.92,0,0,0-6.34,1.76,11.18,11.18,0,0,0-3.79,4.3v5.71q0,15.63,10.81,15.62a8.79,8.79,0,0,0,7.28-3.9,15.93,15.93,0,0,0,2.91-9.79,15.64,15.64,0,0,0-3-9.88A9.52,9.52,0,0,0,221.42,198.93Z"/><path class="cls-5" d="M151.87,190.73q10.69,0,10.69-10.47A9.1,9.1,0,0,0,160,173.6a9.7,9.7,0,0,0-7.19-2.57,10.32,10.32,0,0,0-6.59,2.21,6.73,6.73,0,0,0-2.81,5.49H127.11a94.86,94.86,0,0,0-2.2,20.36A96,96,0,0,0,126.6,217h15.65a8.58,8.58,0,0,0,3.05,6.56,10.79,10.79,0,0,0,7.53,2.77,11.3,11.3,0,0,0,8-2.8,9.35,9.35,0,0,0,3-7.16q0-6.23-3.12-8.83t-8.6-2.6h-9.28v-14.2Z"/><path class="cls-5" d="M288.15,171.09a7.57,7.57,0,0,0-7.16,4.07q-2.24,4.08-2.41,12.34v21.05q0,9.22,2.33,13.5a7.76,7.76,0,0,0,7.35,4.27,7.67,7.67,0,0,0,7.19-4.16q2.32-4.16,2.38-13V188.74q0-8.88-2.32-13.27A7.76,7.76,0,0,0,288.15,171.09Z"/><path class="cls-5" d="M288.26,241q-13.75,0-21.28-9.11t-7.52-25.7v-15q0-16.69,7.5-25.75t21.19-9.06q12,0,19.26,7a94.77,94.77,0,0,0-175.27-.64,27,27,0,0,1,5.89-3.56,34.43,34.43,0,0,1,14.12-2.86q13.75,0,21.62,6.29t7.87,17.26a17.38,17.38,0,0,1-3.26,10,23.11,23.11,0,0,1-9.48,7.67,22.15,22.15,0,0,1,10.3,7.22,19,19,0,0,1,3.74,12,21.27,21.27,0,0,1-8.49,17.66Q166,241,152.15,241a36.52,36.52,0,0,1-15-3.09,27.21,27.21,0,0,1-5.17-3,94.77,94.77,0,0,0,175.93-1.32Q300.58,241,288.26,241Zm-40.55-14a26.37,26.37,0,0,1-10.36,10.27A29.74,29.74,0,0,1,222.61,241a30.78,30.78,0,0,1-15.68-4,27.48,27.48,0,0,1-10.75-11.4,37.62,37.62,0,0,1-4-17.1v-7.64A47.56,47.56,0,0,1,197.68,178a39.63,39.63,0,0,1,15.59-15.93,44.61,44.61,0,0,1,22.47-5.78h2.89v15h-.85q-10.69,0-17.57,5.13a21.55,21.55,0,0,0-8.46,14.23A22.27,22.27,0,0,1,228,184.33q10.71,0,17,7.81t6.34,20.49A28.88,28.88,0,0,1,247.71,227.06Z"/><path class="cls-5" d="M407.58,229q-2.94,4.53-10.22,8.32t-18.82,3.79q-14.76,0-24.42-9.45t-9.65-24.45v-17q0-15,9-24.45t23.21-9.45q14.15,0,22.24,7a23.08,23.08,0,0,1,8.26,17.94l-.11.34H396.43A17.3,17.3,0,0,0,391,169.71q-5-4.64-14.29-4.64a18.71,18.71,0,0,0-15.23,7.07q-5.77,7.06-5.77,17.93v17.07q0,11,6.45,18.07a21.21,21.21,0,0,0,16.41,7.1A30,30,0,0,0,390,230.44a16.14,16.14,0,0,0,6.4-4.23V207.52H378.37v-8.77h29.21Z"/><path class="cls-5" d="M433.94,163H422.79V151.6h11.15Zm0,76.91H422.79V178.65h11.15Z"/><path class="cls-5" d="M468.62,221.84l1,4.3h.34l1.08-4.3,14.09-43.19h11.38l-22.53,61.24h-8.43L442.7,178.65h11.43Z"/><path class="cls-5" d="M515.64,163H504.49V151.6h11.15Zm0,76.91H504.49V178.65h11.15Z"/><path class="cls-5" d="M539.85,178.65l.8,9.12a22.14,22.14,0,0,1,7.66-7.56,20.51,20.51,0,0,1,10.5-2.69q9.91,0,15.34,5.8t5.43,17.92v38.65H568.43V201.46q0-8.09-3.19-11.49t-9.77-3.39A15.68,15.68,0,0,0,547,188.9a16.9,16.9,0,0,0-5.92,6.34v44.65H529.89V178.65Z"/><path class="cls-5" d="M590.44,210.41q0-14.78,6.45-23.83t17.83-9.06A21.55,21.55,0,0,1,625,179.87a20.14,20.14,0,0,1,7.36,6.76l1.36-8h8.88v61.58q0,11.78-6.84,18.08T616,264.62a41.39,41.39,0,0,1-9.53-1.21,37.37,37.37,0,0,1-9-3.31l2.83-8.66a28.73,28.73,0,0,0,7.24,2.74,34.85,34.85,0,0,0,8.38,1q8.14,0,11.86-3.71t3.7-11.29v-6.9a19.5,19.5,0,0,1-7.18,5.8,22.58,22.58,0,0,1-9.62,2q-11.26,0-17.72-8.15t-6.45-21.34Zm11.15,1.18q0,9.22,3.9,14.83t11.89,5.6a14.7,14.7,0,0,0,8.43-2.29,17.35,17.35,0,0,0,5.6-6.48V195.07a17.24,17.24,0,0,0-5.6-6.2,14.67,14.67,0,0,0-8.32-2.29,13,13,0,0,0-11.94,6.68q-4,6.68-4,17.15Z"/></svg>